<svg width="122" height="105" viewBox="0 0 122 105" fill="none" xmlns="http://www.w3.org/2000/svg">
<path d="M54.6754 7.9972C50.6009 7.9972 46.5933 7.86492 42.578 8.52317C38.154 9.24842 34.0233 13.2354 31.8942 17.0373C29.635 21.0716 29.2314 26.1907 29.2314 30.7126C29.2314 35.1954 31.998 39.4965 34.8363 42.7607C37.9625 46.3557 41.3737 49.3102 45.6681 51.4885C49.0668 53.2125 51.9255 53.9353 55.7602 54.1677C60.1594 54.4343 63.8836 54.7274 68.0548 53.1979C71.4198 51.9641 74.097 48.935 76.7169 46.6233C78.713 44.862 80.6967 43.0468 81.2863 40.3938C81.7047 38.511 82.4616 35.9265 81.6643 34.0328C80.31 30.8163 79.0034 27.0959 76.5032 24.4996C74.3832 22.298 72.4111 20.0606 70.3559 17.777C68.2176 15.4011 65.7711 13.4716 63.5511 11.2517C60.6514 8.35189 57.502 7.10962 53.4919 7.10962" stroke="black" style="stroke:black;stroke-opacity:1;" stroke-width="3" stroke-linecap="round"/>
<path d="M58.4356 54.5001C58.4356 56.3136 56.9499 57.9491 56.9499 59.8063C56.9499 62.6783 56.5254 65.5939 56.5254 68.5084C56.5254 70.7523 57.7471 72.5232 59.5912 73.6967C61.4235 74.8627 63.5811 76.6125 65.7464 77.0455C66.8179 77.2598 68.1555 77.7172 69.1423 78.1657C70.3105 78.6967 72.124 78.9129 73.3991 79.109C76.2557 79.5485 79.0953 79.5453 81.9951 79.5453C83.4325 79.5453 84.9389 79.6698 86.3698 79.5335C88.3867 79.3414 89.9837 78.1201 91.8882 77.6233C93.5356 77.1935 95.3158 75.5635 96.4752 74.4042C97.2836 73.5957 98.5741 72.7109 99.14 71.6921C101.182 68.0165 102.742 64.4724 102.583 60.1836C102.51 58.2022 101.455 56.2817 101.109 54.3821C100.638 51.7917 99.8497 49.5374 98.5976 47.2836C96.9388 44.2977 93.727 41.9306 90.6973 40.3266C88.2965 39.0556 85.3869 37.308 82.6319 37.308" stroke="black" style="stroke:black;stroke-opacity:1;" stroke-width="3" stroke-linecap="round"/>
<path d="M84.5416 42.1897C87.6314 42.1897 90.7482 44.906 92.8664 47.0243C93.9631 48.121 94.5658 49.52 95.5313 50.7268C95.9819 51.2901 95.2963 52.2487 95.0478 52.696C94.6976 53.3264 93.601 53.2266 92.9253 53.2266C91.6063 53.2266 89.9645 52.1479 88.8808 51.5286C87.6438 50.8218 86.3018 49.8747 85.6028 48.6515C85.1343 47.8316 84.481 47.0446 84.0699 46.2224C83.7638 45.6102 83.0085 45.261 82.8318 44.6424C82.6288 43.9319 82.2562 43.7148 82.2068 42.8265C82.1925 42.569 81.6192 42.0227 81.8295 41.8124C82.0081 41.6338 82.8093 41.7652 83.0558 41.7652" stroke="black" style="stroke:black;stroke-opacity:1;" stroke-width="3" stroke-linecap="round"/>
<path d="M56.9497 12.6873C55.8963 12.6873 54.8214 12.6847 53.8721 12.2628C52.8054 11.7887 51.6488 11.4138 50.4762 11.4138C48.8188 11.4138 45.2414 14.8141 47.717 16.1894C48.6408 16.7027 50.1382 17.2792 50.7945 18.0996C51.5845 19.0871 53.8034 19.2894 54.9216 19.7976C56.351 20.4473 58.2599 20.1128 59.6028 20.8588C60.6762 21.4551 62.113 21.5223 63.211 22.1323C64.129 22.6423 65.0126 23.0582 65.8641 23.5591C66.4447 23.9006 68.5332 25.6813 68.6234 24.1487C68.7565 21.8849 69.5911 20.1169 67.7272 18.2529C67.0782 17.6039 66.2383 16.742 65.4396 16.3427C64.5869 15.9163 63.3814 15.6451 62.6804 15.022C61.9066 14.3342 60.2871 14.0453 59.3316 13.7014C58.2004 13.2942 56.8573 12.8996 55.6762 12.8996" stroke="black" style="stroke:black;stroke-opacity:1;" stroke-width="3" stroke-linecap="round"/>
<path d="M47.0513 81.3551C44.3916 81.3551 41.0808 81.4268 39.4889 84.0317C38.2101 86.1242 35.681 91.4278 36.8123 93.9733C39.6765 100.418 46.0846 103.14 52.7869 102.768C59.6366 102.387 59.8449 92.9783 59.2872 88.2378C58.9965 85.7666 56.0842 83.9318 54.4013 82.4172C53.6023 81.6981 48.4078 79.4068 47.8161 80.5904" stroke="black" style="stroke:black;stroke-opacity:1;" stroke-width="3" stroke-linecap="round"/>
<path d="M6.80623 44.0215C5.52926 44.0215 4.06573 44.0806 3.09528 45.051C2.26675 45.8796 2.28127 47.6557 2.28127 48.762C2.28127 51.7496 5.93512 51.9941 8.20682 51.9941C9.34923 51.9941 10.6444 51.583 10.9122 50.378C11.2084 49.0453 12.1009 48.4008 11.7741 46.9305C11.2668 44.6476 9.54415 43.3751 7.23718 43.3751" stroke="black" style="stroke:black;stroke-opacity:1;" stroke-width="3" stroke-linecap="round"/>
<path d="M108.03 3.36085C105.932 3.5939 105.906 7.50213 105.111 8.93367C103.958 11.0089 105.983 13.3659 107.381 14.6244C108.621 15.7401 111.404 15.6986 113.072 16.0692C115.371 16.5801 116.738 15.5881 118.232 14.0937C120.348 11.978 120.311 5.56208 117.996 3.47879C115.164 0.929564 109.363 0.693749 107.499 4.42234" stroke="black" style="stroke:black;stroke-opacity:1;" stroke-width="3" stroke-linecap="round"/>
<path d="M113.116 5.60547C114.655 5.60547 115.323 6.51787 115.917 7.70615" stroke="black" style="stroke:black;stroke-opacity:1;" stroke-width="3" stroke-linecap="round"/>
<path d="M50.2041 85.2953C51.1977 85.2953 52.527 85.3416 53.2754 86.09C53.5788 86.3933 53.9661 86.6151 54.2419 86.9598C54.6028 87.411 54.474 87.9569 54.6499 88.4847" stroke="black" style="stroke:black;stroke-opacity:1;" stroke-width="3" stroke-linecap="round"/>
</svg>
