<svg width="89" height="141" viewBox="0 0 89 141" fill="none" xmlns="http://www.w3.org/2000/svg">
<path d="M28.1194 3.96692C24.808 3.96692 20.9611 3.35841 17.9332 4.87237C15.2216 6.22816 13.4019 8.31708 11.3234 10.3956C8.20317 13.5158 6.54684 18.3957 5.80019 22.7097C5.155 26.4374 4.98876 32.7218 6.70564 36.1555C10.6154 43.9751 16.8803 45.5233 24.5429 47.8811C27.4654 48.7803 31.9711 47.9716 35.0461 47.9716C38.7836 47.9716 44.5901 46.665 47.8808 44.8931C52.6066 42.3484 56.6395 37.69 57.8407 32.2847C58.4528 29.5303 58.2708 26.5997 58.2708 23.7283C58.2708 20.2604 57.8551 18.3627 55.4186 15.783C54.103 14.39 53.1575 12.7576 51.8421 11.3916C50.8069 10.3166 49.7853 8.44307 48.492 7.72452C46.0281 6.35572 43.8174 4.72009 41.3616 3.35574C39.4104 2.27174 36.6284 1.52222 34.4349 1.52222C32.264 1.52222 30.2343 3.15202 28.1194 3.15202" stroke="black" style="stroke:black;stroke-opacity:1;" stroke-width="3" stroke-linecap="round"/>
<path d="M43.1787 10.0546C42.6924 10.0546 42.4836 9.77434 42.0895 9.53179C41.6121 9.238 41.1265 8.88652 40.6905 8.52974C39.6144 7.64934 38.3887 6.88931 37.0308 6.54984C36.2954 6.36599 35.4856 6.28537 34.7653 6.61277C34.4557 6.75348 34.154 6.80291 33.9036 7.05328C33.7221 7.23479 33.6654 7.54011 33.4631 7.70196C33.0364 8.04334 33.071 8.53232 33.071 9.02835C33.071 9.50706 33.1384 10.7307 33.6325 11.0131C33.8872 11.1586 34.069 11.5673 34.2715 11.7779C34.6022 12.1219 34.9583 12.4036 35.3559 12.6687C35.9396 13.0578 36.6511 13.3281 37.3019 13.5884C38.1346 13.9215 38.9639 14.2837 39.7804 14.6534C40.8916 15.1566 42.2935 15.2329 43.3094 15.9362C44.1538 16.5209 45.4276 16.6468 46.422 16.8318C46.9145 16.9234 47.8857 16.9892 48.2761 16.6769C48.6902 16.3456 48.581 15.8046 48.581 15.3263C48.581 14.1969 47.6101 12.9541 46.7415 12.2717C46.184 11.8336 45.7189 11.2916 45.0956 10.9453C44.5977 10.6687 44.0671 10.4436 43.6143 10.1417" stroke="black" style="stroke:black;stroke-opacity:1;" stroke-width="3" stroke-linecap="round"/>
<path d="M70.3978 49.4786C68.4639 49.4786 66.5301 49.4786 64.5962 49.4786C63.767 49.4786 63.1888 50.6441 62.7887 51.2987C62.1075 52.4136 61.3399 53.4973 60.6147 54.5851C59.2484 56.6345 58.498 59.681 58.1121 62.093C57.5396 65.6711 58.2157 68.2227 60.0459 71.3199C62.2325 75.0203 65.1081 77.0467 69.374 77.703C73.5822 78.3504 79.1636 78.4237 82.5698 75.5416C83.4296 74.814 84.3499 74.4281 84.9081 73.3676C85.2036 72.8062 85.3405 72.3378 85.5907 71.775C86.186 70.4354 86.5513 68.5052 86.5513 67.0477C86.5513 65.2434 87.1753 63.3415 86.5007 61.5874C86.0534 60.4244 84.9887 58.5575 84.1497 57.6691C82.9451 56.3936 81.7725 54.7077 80.4084 53.6244C79.2718 52.7219 77.8163 52.4558 76.7176 51.5768C76.0791 51.066 74.7906 51.1272 74.0886 50.5656C73.3941 50.0101 72.3274 50.1021 71.5354 49.7062" stroke="black" style="stroke:black;stroke-opacity:1;" stroke-width="3" stroke-linecap="round"/>
<path d="M11.4191 69.1115C8.7193 69.4115 7.30744 74.0696 5.76562 75.7928C4.39724 77.3222 2.16797 81.7134 2.16797 83.7591C2.16797 86.3391 2.40866 88.8886 2.68192 91.2114C2.88221 92.9139 7.13125 96.0462 8.5638 96.8648C10.8124 98.1497 12.8478 99.8982 15.2737 100.976C17.756 102.08 20.3783 102.902 22.726 103.946C24.7186 104.832 28.491 104.06 30.6922 104.06C33.0457 104.06 36.705 101.473 38.1445 99.9485C41.537 96.3565 43.284 91.1245 43.284 86.3288C43.284 85.2581 43.5493 83.7881 43.2555 82.7597C42.968 81.7536 41.6169 80.8543 41.114 79.9044C39.9231 77.6549 37.8333 75.9433 36.3171 73.994C33.5632 70.4532 28.2542 67.8196 23.7539 67.5696C21.4136 67.4396 18.9818 67.5696 16.8156 67.5696C14.6781 67.5696 12.6068 68.5975 10.3912 68.5975" stroke="black" style="stroke:black;stroke-opacity:1;" stroke-width="3" stroke-linecap="round"/>
<path d="M57.119 103.496C56.5278 103.496 54.9931 103.207 54.5501 103.616C53.7418 104.362 53.0102 105.256 52.3425 106.115C51.5085 107.187 51.4679 108.79 51.2989 110.058C51.1252 111.361 51.1584 112.655 51.1584 113.972C51.1584 114.762 51.0127 115.676 51.339 116.41C51.8101 117.47 52.9311 117.582 53.8276 118.126C55.3382 119.044 57.159 118.915 58.7447 119.481C60.116 119.971 62.4729 119.587 63.6617 118.849C65.0702 117.975 66.0276 117.097 67.0534 115.778C68.3439 114.119 69.221 111.909 69.221 109.818C69.221 108.076 67.3976 106.001 65.9697 105.161C64.8031 104.475 63.8091 103.125 62.3572 102.954C61.7421 102.881 58.3834 102.285 58.3834 103.315" stroke="black" style="stroke:black;stroke-opacity:1;" stroke-width="3" stroke-linecap="round"/>
<path d="M64.5245 128.964C63.8875 128.964 62.6542 130.444 62.2165 130.991C61.2119 132.247 61.5819 134.867 62.0961 136.189C62.5769 137.425 63.5815 138.077 64.7955 138.346C65.575 138.52 67.4227 138.923 68.0969 138.316C69.0204 137.485 69.4014 136.928 69.4014 135.647C69.4014 134.764 69.6433 133.396 69.2208 132.657C68.7561 131.843 68.0918 130.667 67.1536 130.399C66.7714 130.29 66.5788 129.867 66.1502 129.867C65.6083 129.867 65.0664 129.867 64.5245 129.867" stroke="black" style="stroke:black;stroke-opacity:1;" stroke-width="3" stroke-linecap="round"/>
<path d="M78.9649 57.4016C78.9198 57.1987 78.5275 57.1786 78.377 57.0883C77.9938 56.8584 77.6057 56.6142 77.263 56.3263C76.7403 55.8873 76.2125 55.4755 75.592 55.1736C75.2897 55.0266 74.8862 54.7559 74.5437 54.7559C74.2853 54.7559 74.1459 55.1886 74.095 55.4173C74.0551 55.5969 73.952 55.7518 73.8823 55.924C73.8279 56.0585 73.8076 56.381 73.7276 56.481C73.4916 56.7759 73.7199 57.7335 73.8127 58.0282C74.4745 60.1306 76.7918 61.1176 78.551 62.1361C79.5693 62.7256 80.6268 63.0978 81.6803 63.5982C81.9125 63.7085 82.4472 64.0159 82.6937 64.0159C83.1287 64.0159 83.1424 63.9438 83.1424 63.5286C83.1424 63.1804 83.1424 62.8323 83.1424 62.4842C83.1424 62.1295 83.0576 61.7816 82.891 61.4669C82.3855 60.5122 81.8054 59.5769 81.2316 58.6587C81.0337 58.3421 80.872 58.0556 80.5663 57.8348C80.3544 57.6818 80.1035 57.681 79.8855 57.5408C79.5515 57.3261 79.3035 57.0535 78.8953 57.0535" stroke="black" style="stroke:black;stroke-opacity:1;" stroke-width="3" stroke-linecap="round"/>
<path d="M29.6645 73.9287C29.9464 73.9287 30.2271 73.9001 30.4957 73.9931C30.8303 74.1089 31.1718 74.34 31.4557 74.5492C32.0212 74.9658 32.7006 75.4716 33.1152 76.0389C33.932 77.1567 34.7968 78.223 35.1698 79.5657C35.3066 80.0584 35.3462 80.8806 35.0907 81.3276C34.9714 81.5365 34.6006 81.7712 34.4029 81.9071C33.9717 82.2036 33.332 82.2658 32.8254 82.2524C32.3752 82.2406 31.8792 81.9671 31.4557 81.831C30.7697 81.6105 30.1071 81.3262 29.4479 81.0437C28.4706 80.6248 27.4616 80.1898 26.5036 79.7237C25.6075 79.2878 24.8029 78.6942 23.9222 78.2369C23.5593 78.0485 23.0844 77.7877 22.7924 77.5111C22.6497 77.3759 22.5115 77.1517 22.368 77.0369C22.2721 76.9602 22.2363 76.3571 22.2363 76.2233C22.2363 75.8447 22.2363 75.4662 22.2363 75.0877C22.2363 74.363 22.767 74.002 23.3339 73.6477C23.9364 73.2711 24.5971 73.1911 25.2919 73.1911C25.9045 73.1911 26.5361 73.1485 27.124 73.3375C27.5085 73.4611 27.9717 73.6653 28.3738 73.6653C28.5573 73.6653 28.8176 73.733 29.0001 73.7736C29.1978 73.8175 29.2205 73.9814 29.4538 73.9814" stroke="black" style="stroke:black;stroke-opacity:1;" stroke-width="3" stroke-linecap="round"/>
<path d="M61.042 106.686C61.5673 106.686 62.0463 106.62 62.5057 106.912C62.87 107.144 63.7266 107.313 63.8711 107.747" stroke="black" style="stroke:black;stroke-opacity:1;" stroke-width="3" stroke-linecap="round"/>
</svg>
