<svg width="1178" height="610" viewBox="0 0 1178 610" fill="none" xmlns="http://www.w3.org/2000/svg">
<path d="M480.291 342.489C478.494 342.264 479.519 331.67 478.658 329.624C476.909 325.47 477.535 320.303 477.535 315.841C477.535 313.209 478.454 311.013 478.454 308.49C478.454 305.717 481.067 303.713 481.21 301.139C481.449 296.834 482.977 292.11 484.682 288.275C488.521 279.635 494.224 272.288 498.873 264.384C501.425 260.045 506.316 256.221 510.615 254.072C515.199 251.779 522.408 248.49 526.236 245.087C528.757 242.846 533.185 242.286 536.139 240.493C538.302 239.179 542.331 237.828 544.817 237.736C550.249 237.535 555.574 234.061 561.153 234.061C571.624 234.061 582.278 233.142 592.395 233.142C596.349 233.142 597.71 226.612 597.909 223.034C598.215 217.519 600.092 212.86 600.665 207.413C601.198 202.355 603.844 196.8 605.974 192.302C608.195 187.614 612.37 181.618 613.478 176.63C615.988 165.339 624.791 159.295 633.286 152.688C643.067 145.081 653.681 138.313 664.528 132.473C673.927 127.412 684.513 122.467 694.851 120.17C705.915 117.711 718.763 119.2 730.228 119.2C737.068 119.2 743.803 119.119 750.443 120.068C755.981 120.859 763.348 125.144 768.361 127.929C778.412 133.513 788.622 137.893 795.928 147.634C801.608 155.207 807.971 163.022 812.468 171.117C814.4 174.594 815.129 178.664 817.062 182.144C818.766 185.21 822.116 190.126 822.116 193.63" stroke="black" style="stroke:black;stroke-opacity:1;" stroke-width="5" stroke-linecap="round"/>
<path d="M685.203 117.362C685.203 109.993 680.695 99.1732 675.504 93.9818C673.291 91.7697 670.946 89.4559 668.663 87.0392C665.216 83.3895 659.999 79.2004 657.432 75.0937C653.185 68.2981 642.193 59.9458 634.256 58.5027C631.607 58.021 628.053 56.289 625.476 55.2866C622.721 54.2154 619.834 54.1504 617.206 52.8363C613.45 50.9585 608.561 49.801 604.341 48.6502C600.079 47.4879 595.781 46.5591 591.528 45.23C586.198 43.5645 580.569 44.4629 575.396 42.4733C570.289 40.509 562.057 42.0139 556.559 42.0139C550.079 42.0139 543.535 41.774 537.058 42.0139C528.559 42.3286 521.204 47.5733 512.912 49.416C508.401 50.4184 504.428 54.8392 500.456 57.0733C495.196 60.0324 489.146 63.3805 484.376 67.2832C477.715 72.7327 468.693 76.4508 463.037 83.3636C461.724 84.9685 459.789 85.7479 458.443 87.2434C457.415 88.386 457.147 90.7853 455.89 92.042C452.335 95.5972 450.744 100.942 447.62 104.957C445.541 107.631 444.012 111.504 442.822 114.81C441.644 118.081 439.157 120.839 438.942 124.713C438.748 128.2 435.406 135.566 433.888 138.905C432.549 141.852 430.672 146.38 430.672 149.523C430.672 162.94 429.753 177.41 429.753 191.332C429.753 196.838 427.924 206.964 431.387 211.293C432.718 212.957 431.591 220.036 431.591 222.115C431.591 223.8 431.591 225.484 431.591 227.169C431.591 229.207 433.429 229.263 433.429 231.304" stroke="black" style="stroke:black;stroke-opacity:1;" stroke-width="5" stroke-linecap="round"/>
<path d="M432.509 229.466C421.389 229.466 410.076 228.5 399.838 232.223C388.013 236.523 376.63 241.53 365.431 247.129C360.707 249.491 354.213 251.128 351.443 256.114C348.14 262.061 338.55 263.588 336.027 269.897C334.751 273.086 330.198 275.453 327.757 277.759C325.577 279.817 324.024 282.41 321.835 284.599C316.885 289.549 317.149 293.606 314.892 299.812C314.038 302.162 312.232 305.866 312.136 308.286C312.016 311.284 309.492 313.412 308.46 316.25C306.585 321.407 302.947 326.488 302.947 332.177C302.947 345.026 302.028 357.918 302.028 370.974C302.028 382.72 299.294 394.969 302.743 406.607C303.518 409.224 303.437 411.445 305.193 413.702C306.72 415.666 308.876 420.352 309.328 422.84C309.572 424.183 310.682 426.845 312.136 427.026C312.892 427.121 315.889 433.104 316.526 434.377C318.311 437.949 320.368 445.636 324.081 447.956C325.088 448.586 326.566 451.899 327.297 453.214C328.586 455.534 329.969 458.364 331.943 460.055C335.399 463.017 337.759 468.19 341.54 471.592C343.89 473.708 345.945 476.806 348.891 478.28C351.295 479.481 354.896 480.865 356.957 482.363C360.591 485.007 366.001 485.338 370.025 487.468C374.527 489.852 376.902 495.03 382.022 497.27C387.385 499.616 392.53 501.439 397.592 504.417C402.899 507.539 408.449 511.934 415.051 513.401C430.352 516.802 445.829 519.016 461.199 521.875C470.105 523.532 479.257 523.923 488.051 526.061C498.359 528.569 508.518 528.549 518.884 530.401C537.578 533.739 556.662 532.698 575.651 532.698C587.836 532.698 599.6 533.617 611.692 533.617" stroke="black" style="stroke:black;stroke-opacity:1;" stroke-width="5" stroke-linecap="round"/>
<path d="M765.146 397.622C755.234 397.622 748.73 390.271 738.09 390.271C727.359 390.271 716.407 391.19 705.878 391.19C703.261 391.19 702.161 391.491 699.905 392.619C697.774 393.685 694.896 393.554 693.422 395.274C692.991 395.776 686.552 397.622 685.662 397.622C682.913 397.622 678.814 400.351 676.525 401.808C671.355 405.098 664.336 407.463 659.934 411.865C655.219 416.579 651.325 421.417 647.069 426.618C640.129 435.101 634.345 444.805 626.803 452.347C622.137 457.012 620.247 464.386 619.094 470.724C618.046 476.49 615.736 481.649 614.5 487.213C612.168 497.709 609.854 508.366 609.854 519.374C609.854 523.511 610.668 527.504 611.743 531.269C612.824 535.053 615.368 538.382 615.368 542.346C615.368 544.926 618.297 554.101 619.962 556.078C620.654 556.9 622.663 562.024 622.719 563.021C622.86 565.557 625.179 566.012 625.476 568.534C625.597 569.568 628.209 571.029 628.947 572.21C630.006 573.904 633.267 573.977 634.46 575.886C636.454 579.076 642.085 581.485 645.18 583.032C649.317 585.101 653.09 585.526 656.718 588.75C659.418 591.15 665.771 594.781 669.582 595.182C674.714 595.722 679.369 598.858 684.488 598.858C689.418 598.858 697.296 600.514 701.743 602.737C706.31 605.021 715.057 605.927 720.121 606.209C725.692 606.518 730.918 607.128 736.66 607.128C741.708 607.128 746.504 606.503 751.363 606.209C755.749 605.943 760.224 600.615 763.104 597.735C767.163 593.676 773.064 595.223 778.01 593.14C781.532 591.657 786.212 589.619 788.833 586.708C791.397 583.859 796.023 580.921 798.021 577.723C800.264 574.135 804.674 572.178 806.496 568.534" stroke="black" style="stroke:black;stroke-opacity:1;" stroke-width="5" stroke-linecap="round"/>
<path d="M806.495 568.534C808.905 568.534 812.215 575.001 812.876 577.315C814.103 581.609 818.663 582.412 823.035 583.441C832 585.55 838.454 589.374 846.926 593.14C850.817 594.869 857.41 595.182 861.628 595.182C866.599 595.182 871.126 596.101 876.126 596.101C881.554 596.101 886.983 596.101 892.411 596.101C895.085 596.101 898.949 596.793 901.549 596.05C902.754 595.705 903.656 593.754 904.816 593.14C912.303 589.176 921.092 586.767 927.379 580.48C934.181 573.678 940.205 567.081 944.532 558.427C946.552 554.386 948.234 550.046 948.973 545.613C949.675 541.401 952.598 537.081 952.598 532.698C952.598 529.037 953.517 525.116 953.517 521.212C953.517 517.334 950.76 514.889 950.76 511.563" stroke="black" style="stroke:black;stroke-opacity:1;" stroke-width="5" stroke-linecap="round"/>
<path d="M887.357 428.864C885.641 428.673 883.381 425.668 882.558 424.269C881.022 421.657 878.019 420.196 875.412 418.96C871.208 416.969 864.48 417.837 859.791 417.837C857.34 417.837 854.89 417.837 852.44 417.837C850.854 417.837 848.945 417.542 847.386 417.888C846.097 418.175 845.579 419.601 844.17 419.675C842.041 419.787 838.37 420.472 837.023 422.432C835.278 424.97 831.16 425.414 829.672 427.945C828.531 429.885 826.671 429.671 825.588 431.62C824.577 433.439 822.909 434.332 821.912 436.215C819.723 440.351 818.722 444.117 816.807 448.16C812.865 456.483 816.708 467.667 820.279 474.808" stroke="black" style="stroke:black;stroke-opacity:1;" stroke-width="5" stroke-linecap="round"/>
<path d="M994.866 331.462C1001.2 330.758 1007.06 329.624 1013.75 329.624C1018.63 329.624 1028.75 327.723 1033 330.084C1039 333.417 1046.45 335.867 1052.76 339.017C1055.8 340.539 1058.87 341.668 1061.94 343.204C1064.29 344.376 1069.04 345.797 1070.42 348.002C1073.1 352.295 1080.8 355.401 1082.21 360.356C1083 363.124 1084 364.397 1084 367.758C1084 370.411 1085.19 373.335 1085.78 376.028C1086.39 378.754 1085.68 381.969 1085.84 384.757C1086 387.741 1087.67 390.917 1087.67 393.946C1087.67 398.812 1089.43 408.307 1086.75 412.324" stroke="black" style="stroke:black;stroke-opacity:1;" stroke-width="5" stroke-linecap="round"/>
<path d="M679.689 97.1469C680.117 93.7292 685.34 88.4931 687.449 86.1203C691.676 81.3645 697.109 77.6258 702.202 73.6643C706.198 70.5562 710.97 67.6269 714.097 63.6076C717.426 59.3264 722.181 53.4519 726.757 50.2838C731.3 47.1383 735.472 43.2018 739.417 39.2572C743.21 35.4645 748.479 33.5743 752.485 29.8642C757.852 24.8956 768.304 20.7918 775.304 19.0417C782.414 17.2644 788.732 11.6735 796.388 10.8228C800.103 10.4101 803.768 9.10624 807.414 8.21934C812.439 6.99709 817.35 7.79573 822.321 6.89206C838.751 3.90482 855.179 2.08775 871.787 3.47177C881.363 4.26976 889.539 7.43722 898.894 8.93403C907.028 10.2354 916.013 11.3826 923.194 15.162C930.85 19.1915 939.625 22.2421 947.799 25.2697C954.725 27.835 963.34 30.3049 969.546 34.2544C975.665 38.1482 982.422 40.4759 988.434 44.7705C995.084 49.5199 1002.62 52.8894 1009.36 57.6349C1022.22 66.6798 1034.53 78.3872 1043.11 91.5825C1046.97 97.5276 1052.85 104.828 1054.59 111.798C1055.98 117.325 1059.05 125.277 1062.86 129.308C1067.41 134.111 1066.33 141.78 1069.3 146.971C1071.01 149.971 1071.52 154.066 1072.97 157.334C1074.22 160.137 1075.88 162.693 1076.7 165.553C1078.58 172.148 1080.97 179.495 1082.11 186.33C1083.17 192.667 1084.92 199.099 1084.92 205.575C1084.92 217.941 1085.84 230.994 1085.84 243.658C1085.84 250.269 1084.9 257.739 1083.95 264.384C1083.01 270.977 1079.79 277.997 1079.4 284.599C1079.25 287.168 1077.69 290.99 1076.65 293.329C1075.77 295.296 1074 299.199 1073.89 301.139C1073.72 304.154 1069.36 313.952 1067 315.841C1063.49 318.647 1063.2 324.793 1060.52 328.246C1057.66 331.92 1056.57 336.695 1054.59 340.651" stroke="black" style="stroke:black;stroke-opacity:1;" stroke-width="5" stroke-linecap="round"/>
<path d="M1087.28 411.542C1096.14 412.527 1105.08 412.976 1113.86 415.3C1117.47 416.255 1121.02 416.868 1124.58 418.055C1128.46 419.349 1133.04 420.107 1136.38 422.452C1138.92 424.24 1141.93 425.111 1144.42 427.1C1147.14 429.274 1150.03 431.034 1152.69 433.335C1155.09 435.417 1156.95 438.017 1158.81 440.599C1161.07 443.723 1163.57 446.948 1165.32 450.395C1166.95 453.591 1168.52 456.803 1169.92 460.109C1172 465.064 1171.91 470.467 1172.67 475.694C1176.04 498.79 1176.91 523.245 1162.68 543.27C1159.41 547.872 1155.68 552.023 1151.91 556.211C1147.64 560.954 1141.44 564.108 1136.16 567.595C1124.4 575.351 1112.07 580.806 1098.92 585.769C1074.17 595.101 1047.12 586.946 1022.16 583.152C1009.66 581.253 999.33 575.215 988.119 569.877C981.168 566.567 974.46 563.036 968.164 558.605C966.011 557.09 963.592 555.409 961.568 553.79C959.818 552.39 957.86 551.14 956.28 549.56C954.749 548.029 952.475 546.209 951.521 544.299" stroke="black" style="stroke:black;stroke-opacity:1;" stroke-width="5" stroke-linecap="round"/>
<path d="M251.426 413.773C232.892 413.773 214.415 412 195.859 412C182.707 412 170.404 412.086 157.467 414.627C146.829 416.717 135.423 422.096 126.695 428.552C119.699 433.727 112.403 439.187 107.319 446.418C102.54 453.214 99.0299 461.605 96.8753 469.636C94.262 479.377 93 490.283 93 500.343C93 509.138 93.1079 517.144 95.6273 525.631C99.6725 539.256 107.579 549.074 119.01 557.388C123.603 560.728 130.926 561.559 136.416 561.559C145.321 561.559 153.668 562.232 162.492 559.654C184.349 553.269 197.043 529.914 199.438 508.356C199.729 505.744 200.984 501.541 202.066 499.161C202.722 497.717 203.604 495.303 204.857 494.3C205.808 493.54 209.36 497.689 210.046 498.307C213.896 501.771 217.793 503.323 222.46 505.138C233.205 509.316 243.143 509.538 254.513 509.538C268.262 509.538 283.072 508.038 292.773 497.124C300.224 488.743 303.05 474.268 300.491 463.429C298.832 456.402 295.497 449.597 292.806 442.871C290.791 437.833 287.431 433.854 284.858 429.176C281.343 422.784 272.856 416.434 265.154 416.138C259.881 415.935 254.841 413.773 249.653 413.773" stroke="black" style="stroke:black;stroke-opacity:1;" stroke-width="5" stroke-linecap="round"/>
<path d="M102.051 266.254C93.9168 265.297 86.9271 263 78.6695 263C68.7741 263 58.8406 263.948 49.4429 266.676C41.4922 268.984 33.757 269.334 26.363 273.606C20.2975 277.11 15.5159 283.348 11.7798 289.274C5.33166 299.502 -2.65111 319.201 8.76678 328.082C16.8543 334.372 30.8351 334.778 40.4641 337C55.5032 340.471 69.2503 342.183 84.6956 342.183C99.6865 342.183 124.33 336.878 126.999 318.862C128.779 306.847 128.524 296.359 128.084 284.453C127.757 275.646 110.325 269.735 103.135 267.339" stroke="black" style="stroke:black;stroke-opacity:1;" stroke-width="5" stroke-linecap="round"/>
</svg>
