<svg width="1203" height="610" viewBox="0 0 1203 610" fill="none" xmlns="http://www.w3.org/2000/svg">
<path d="M182.712 342.679C180.915 342.455 181.94 331.86 181.079 329.815C179.33 325.661 179.956 320.493 179.956 316.032C179.956 313.399 180.875 311.204 180.875 308.681C180.875 305.907 183.488 303.904 183.631 301.33C183.87 297.024 185.398 292.3 187.102 288.465C190.942 279.826 196.645 272.479 201.294 264.574C203.846 260.236 208.737 256.411 213.035 254.262C217.62 251.97 224.829 248.68 228.656 245.278C231.178 243.036 235.606 242.477 238.56 240.683C240.723 239.37 244.752 238.019 247.238 237.927C252.67 237.725 257.994 234.251 263.574 234.251C274.045 234.251 284.699 233.332 294.816 233.332C298.77 233.332 300.131 226.802 300.329 223.224C300.636 217.709 302.513 213.05 303.086 207.603C303.618 202.545 306.265 196.991 308.395 192.493C310.616 187.805 314.791 181.808 315.899 176.821C318.409 165.53 327.212 159.486 335.706 152.879C345.488 145.271 356.102 138.504 366.948 132.663C376.348 127.602 386.934 122.658 397.272 120.361C408.336 117.902 421.183 119.391 432.649 119.391C439.488 119.391 446.224 119.31 452.864 120.258C458.402 121.05 465.769 125.335 470.782 128.12C480.833 133.704 491.043 138.084 498.349 147.825C504.029 155.398 510.391 163.212 514.889 171.308C516.821 174.785 517.55 178.855 519.483 182.334C521.187 185.401 524.537 190.316 524.537 193.82" stroke="black" style="stroke:black;stroke-opacity:1;" stroke-width="5" stroke-linecap="round"/>
<path d="M387.624 117.553C387.624 110.183 383.116 99.3638 377.925 94.1724C375.712 91.9602 373.366 89.6465 371.084 87.2297C367.637 83.5801 362.42 79.3909 359.853 75.2842C355.606 68.4886 344.614 60.1364 336.677 58.6933C334.028 58.2116 330.474 56.4796 327.896 55.4772C325.142 54.406 322.255 54.3409 319.626 53.0268C315.871 51.1491 310.982 49.9916 306.762 48.8408C302.5 47.6785 298.202 46.7497 293.949 45.4205C288.619 43.755 282.99 44.6534 277.817 42.6639C272.71 40.6996 264.478 42.2044 258.98 42.2044C252.5 42.2044 245.956 41.9645 239.479 42.2044C230.98 42.5192 223.625 47.7639 215.333 49.6065C210.822 50.609 206.849 55.0297 202.877 57.2639C197.617 60.223 191.567 63.5711 186.797 67.4737C180.136 72.9233 171.114 76.6413 165.458 83.5542C164.145 85.1591 162.21 85.9385 160.864 87.4339C159.835 88.5765 159.568 90.9759 158.311 92.2325C154.756 95.7878 153.164 101.133 150.041 105.148C147.962 107.821 146.433 111.695 145.243 115C144.065 118.272 141.578 121.029 141.363 124.904C141.169 128.391 137.827 135.756 136.309 139.096C134.97 142.042 133.093 146.571 133.093 149.714C133.093 163.131 132.174 177.601 132.174 191.523C132.174 197.028 130.345 207.155 133.808 211.483C135.139 213.147 134.012 220.227 134.012 222.306C134.012 223.99 134.012 225.675 134.012 227.359C134.012 229.398 135.85 229.453 135.85 231.494" stroke="black" style="stroke:black;stroke-opacity:1;" stroke-width="5" stroke-linecap="round"/>
<path d="M134.93 229.657C123.809 229.657 112.497 228.691 102.259 232.413C90.4334 236.714 79.0507 241.72 67.8517 247.32C63.1282 249.682 56.6343 251.318 53.8643 256.304C50.5604 262.251 40.9712 263.778 38.4475 270.088C37.1719 273.277 32.6187 275.644 30.1775 277.949C27.998 280.008 26.4453 282.6 24.2558 284.79C19.306 289.74 19.5697 293.797 17.3131 300.002C16.4586 302.352 14.6533 306.057 14.5565 308.477C14.4365 311.475 11.9129 313.602 10.8809 316.44C9.00555 321.598 5.36764 326.679 5.36764 332.368C5.36764 345.217 4.44875 358.109 4.44875 371.165C4.44875 382.911 1.71539 395.16 5.16344 406.797C5.93892 409.414 5.85781 411.635 7.6138 413.893C9.14096 415.856 11.2964 420.543 11.7488 423.031C11.993 424.374 13.1031 427.035 14.5565 427.217C15.3128 427.311 18.3101 433.295 18.9467 434.568C20.7324 438.139 22.7893 445.826 26.502 448.147C27.5089 448.776 28.9871 452.089 29.7181 453.405C31.0069 455.725 32.3902 458.554 34.3635 460.246C37.8196 463.208 40.1804 468.38 43.9608 471.783C46.3113 473.898 48.3656 476.997 51.3118 478.47C53.7157 479.672 57.3169 481.055 59.3776 482.554C63.0123 485.197 68.4221 485.529 72.4462 487.659C76.9484 490.042 79.3233 495.221 84.4427 497.46C89.8056 499.807 94.951 501.63 100.013 504.607C105.32 507.729 110.87 512.125 117.471 513.592C132.773 516.992 148.25 519.207 163.62 522.066C172.526 523.723 181.678 524.113 190.472 526.252C200.78 528.759 210.939 528.74 221.305 530.591C239.999 533.929 259.083 532.888 278.072 532.888C290.257 532.888 302.021 533.807 314.113 533.807" stroke="black" style="stroke:black;stroke-opacity:1;" stroke-width="5" stroke-linecap="round"/>
<path d="M467.567 397.812C457.655 397.812 451.151 390.461 440.511 390.461C429.78 390.461 418.828 391.38 408.299 391.38C405.682 391.38 404.582 391.682 402.326 392.81C400.195 393.875 397.317 393.745 395.843 395.464C395.412 395.967 388.973 397.812 388.083 397.812C385.334 397.812 381.234 400.542 378.946 401.999C373.776 405.288 366.757 407.653 362.355 412.055C357.64 416.77 353.745 421.607 349.49 426.808C342.55 435.291 336.766 444.995 329.224 452.537C324.558 457.203 322.668 464.577 321.515 470.915C320.467 476.681 318.157 481.84 316.921 487.404C314.588 497.899 312.275 508.557 312.275 519.565C312.275 523.701 313.089 527.694 314.164 531.459C315.245 535.243 317.789 538.573 317.789 542.537C317.789 545.117 320.718 554.292 322.383 556.269C323.075 557.091 325.084 562.215 325.14 563.212C325.281 565.748 327.6 566.202 327.896 568.725C328.018 569.758 330.63 571.219 331.368 572.4C332.427 574.095 335.688 574.167 336.881 576.076C338.875 579.266 344.506 581.675 347.601 583.223C351.738 585.291 355.511 585.716 359.138 588.94C361.839 591.34 368.192 594.971 372.003 595.373C377.135 595.913 381.79 599.048 386.909 599.048C391.839 599.048 399.717 600.704 404.164 602.928C408.731 605.211 417.478 606.118 422.541 606.399C428.113 606.709 433.339 607.318 439.081 607.318C444.129 607.318 448.925 606.694 453.784 606.399C458.17 606.133 462.645 600.805 465.525 597.925C469.584 593.866 475.485 595.413 480.431 593.331C483.953 591.848 488.633 589.81 491.254 586.898C493.818 584.049 498.444 581.111 500.442 577.914C502.685 574.326 507.095 572.369 508.917 568.725" stroke="black" style="stroke:black;stroke-opacity:1;" stroke-width="5" stroke-linecap="round"/>
<path d="M508.916 568.725C511.326 568.725 514.636 575.192 515.297 577.505C516.524 581.799 521.084 582.603 525.456 583.631C534.421 585.741 540.874 589.565 549.347 593.33C553.238 595.06 559.831 595.372 564.049 595.372C569.02 595.372 573.547 596.291 578.547 596.291C583.975 596.291 589.403 596.291 594.832 596.291C597.506 596.291 601.37 596.983 603.969 596.24C605.175 595.896 606.076 593.945 607.237 593.33C614.724 589.367 623.513 586.958 629.8 580.67C636.602 573.868 642.626 567.271 646.953 558.617C648.973 554.577 650.655 550.237 651.394 545.804C652.096 541.591 655.019 537.272 655.019 532.888C655.019 529.227 655.937 525.307 655.937 521.402C655.937 517.524 653.181 515.08 653.181 511.754" stroke="black" style="stroke:black;stroke-opacity:1;" stroke-width="5" stroke-linecap="round"/>
<path d="M589.778 429.055C588.062 428.864 585.802 425.859 584.979 424.46C583.443 421.847 580.44 420.386 577.832 419.151C573.629 417.16 566.901 418.028 562.211 418.028C559.761 418.028 557.311 418.028 554.86 418.028C553.275 418.028 551.366 417.732 549.807 418.079C548.518 418.365 548 419.792 546.59 419.866C544.461 419.978 540.791 420.663 539.444 422.622C537.698 425.161 533.581 425.605 532.093 428.136C530.951 430.075 529.092 429.861 528.009 431.811C526.998 433.63 525.33 434.523 524.333 436.406C522.144 440.541 521.143 444.308 519.228 448.351C515.286 456.674 519.129 467.857 522.699 474.999" stroke="black" style="stroke:black;stroke-opacity:1;" stroke-width="5" stroke-linecap="round"/>
<path d="M658.694 531.051C663.006 531.051 668.488 532.016 672.478 530.336C676.487 528.648 681.032 530.272 685.138 529.009C690.258 527.433 696.486 528.294 701.882 528.294C707.448 528.294 712.742 527.375 718.422 527.375C724.301 527.375 730.123 526.456 735.881 526.456C740.948 526.456 747.766 527.64 752.625 526.252C765.932 522.45 779.803 521.083 793.566 520.024C806.243 519.049 819.252 519.105 832.159 519.105C839.924 519.105 847.703 518.186 855.335 518.186C861.959 518.186 868.174 515.43 874.632 515.43C882.102 515.43 889.134 512.673 896.685 512.673C903.254 512.673 909.244 510.835 915.778 510.835C926.145 510.835 936.522 508.997 946.764 508.997C952.309 508.997 957.565 507.16 962.896 507.16C967.253 507.16 974.048 506.162 978.006 504.403C982.984 502.191 988.188 501.079 992.709 497.562C995.798 495.159 1002.21 494.115 1003.33 490.211C1003.77 488.652 1006.41 487.677 1007 485.617C1007.3 484.587 1009.47 482.221 1010.17 480.971C1012.19 477.336 1014.09 472.766 1015.17 468.975C1016.37 464.77 1017.06 461.589 1017.06 457.081C1017.06 453.273 1018.52 445.83 1016.6 442.378C1014.59 438.76 1013.87 434.864 1011.14 431.352C1008.84 428.404 1005.17 427.838 1001.95 425.787C994.479 421.034 983.631 416.585 974.79 415.322C960.477 413.278 946.614 412.515 932.011 412.515C928.276 412.515 906.501 410.342 904.955 413.434" stroke="black" style="stroke:black;stroke-opacity:1;" stroke-width="5" stroke-linecap="round"/>
<path d="M905.873 411.596C905.873 406.89 908.63 402.715 908.63 397.812C908.63 395.544 909.304 392.042 908.171 390.002C907.386 388.589 906.054 384.737 905.873 383.11C905.601 380.655 902.233 378.143 901.279 375.759C900.021 372.614 897.226 369.869 894.847 367.489C890.868 363.511 884.988 362.356 880.145 359.934C874.244 356.984 866.354 356.861 859.929 355.34C846.735 352.215 832.472 352.787 818.988 352.787C810.275 352.787 801.563 352.787 792.851 352.787C789.43 352.787 781.606 353.224 779.986 356.463" stroke="black" style="stroke:black;stroke-opacity:1;" stroke-width="5" stroke-linecap="round"/>
<path d="M697.287 331.653C703.625 330.949 709.482 329.815 716.175 329.815C721.048 329.815 731.171 327.913 735.421 330.274C741.42 333.608 748.876 336.058 755.177 339.208C758.219 340.729 761.294 341.858 764.366 343.394C766.711 344.567 771.461 345.987 772.84 348.193C775.523 352.485 783.217 355.592 784.632 360.547C785.423 363.315 786.419 364.588 786.419 367.949C786.419 370.601 787.607 373.525 788.206 376.219C788.811 378.945 788.102 382.159 788.257 384.948C788.422 387.932 790.094 391.107 790.094 394.137C790.094 399.002 791.853 408.498 789.175 412.515" stroke="black" style="stroke:black;stroke-opacity:1;" stroke-width="5" stroke-linecap="round"/>
<path d="M382.11 97.3374C382.538 93.9198 387.761 88.6837 389.87 86.3108C394.097 81.5551 399.53 77.8163 404.623 73.8548C408.619 70.7468 413.391 67.8174 416.517 63.7982C419.847 59.517 424.601 53.6425 429.178 50.4743C433.721 47.3289 437.893 43.3924 441.838 39.4477C445.63 35.6551 450.899 33.7648 454.906 30.0547C460.272 25.0861 470.725 20.9823 477.725 19.2323C484.835 17.455 491.153 11.864 498.809 11.0134C502.523 10.6006 506.189 9.29679 509.835 8.40989C514.86 7.18765 519.771 7.98628 524.742 7.08261C541.171 4.09537 557.6 2.2783 574.208 3.66233C583.784 4.46031 591.96 7.62777 601.315 9.12458C609.449 10.4259 618.434 11.5732 625.615 15.3526C633.271 19.3821 642.045 22.4326 650.22 25.4603C657.146 28.0255 665.761 30.4954 671.967 34.4449C678.086 38.3388 684.843 40.6664 690.855 44.961C697.504 49.7104 705.042 53.0799 711.785 57.8254C724.639 66.8704 736.952 78.5777 745.529 91.7731C749.393 97.7181 755.273 105.019 757.015 111.989C758.397 117.516 761.466 125.467 765.285 129.498C769.836 134.302 768.751 141.97 771.717 147.161C773.432 150.162 773.94 154.256 775.393 157.524C776.639 160.328 778.302 162.883 779.119 165.743C781.004 172.338 783.391 179.685 784.53 186.52C785.587 192.857 787.338 199.289 787.338 205.766C787.338 218.132 788.257 231.184 788.257 243.848C788.257 250.459 787.317 257.929 786.368 264.574C785.426 271.168 782.213 278.188 781.825 284.79C781.674 287.358 780.108 291.18 779.068 293.519C778.194 295.487 776.419 299.39 776.312 301.33C776.144 304.345 771.781 314.143 769.42 316.032C765.913 318.837 765.622 324.984 762.937 328.437C760.079 332.111 758.993 336.886 757.015 340.842" stroke="black" style="stroke:black;stroke-opacity:1;" stroke-width="5" stroke-linecap="round"/>
<path d="M1066.68 368.408C1069.97 365.483 1077.02 361.057 1081.38 361.057C1086.56 361.057 1091.83 360.77 1097 361.057C1100.76 361.266 1103.01 368.491 1105.48 370.961C1109.04 374.53 1108.03 380.605 1108.03 385.408C1108.03 389.948 1103.5 399.116 1099.25 401.437C1092.93 404.886 1087.66 407.982 1080 408.788C1072.56 409.572 1065.35 412.515 1057.9 412.515C1053.78 412.515 1049.66 412.515 1045.54 412.515C1042.25 412.515 1039.51 412.191 1036.36 411.187C1033.61 410.314 1030.12 411.605 1027.58 410.473C1024.65 409.171 1022.43 406.53 1019.36 405.164C1016.78 404.017 1011.35 400.25 1009.91 397.812C1008.3 395.08 1006.13 392.655 1005.11 389.594C1004.04 386.383 1004.03 382.886 1003.07 379.639C1001.61 374.722 1000.9 364.786 1003.48 360.138C1004.82 357.723 1007.15 356.21 1008.79 354.165C1010.57 351.937 1015.95 350.542 1017.06 348.601C1018.18 346.632 1022.5 345.883 1024.61 345.232C1026.7 344.59 1028.64 343.728 1030.84 343.598C1032.58 343.496 1032.82 342.109 1034.16 341.812C1039.53 340.617 1047.54 341.517 1052.54 342.628C1058.62 343.981 1059.25 349.87 1062.59 354.165C1065.76 358.238 1065.36 363.932 1067.6 368.408" stroke="black" style="stroke:black;stroke-opacity:1;" stroke-width="5" stroke-linecap="round"/>
<path d="M1174.19 417.109C1170.13 419.018 1164.7 417.86 1160.35 418.947C1157.78 419.591 1153.92 419.079 1151.68 420.325C1148.09 422.319 1143.92 420.803 1140.29 422.214C1135.41 424.112 1129.27 424.672 1125.95 429.106C1123.23 432.723 1119.97 437.663 1119.97 442.327C1119.97 446.568 1131.16 457.294 1135.59 457.54C1139.92 457.78 1143.47 461.215 1148.25 461.215C1153.2 461.215 1158.22 461.49 1163.16 461.215C1167.63 460.967 1172.25 460.297 1176.94 460.297C1180.62 460.297 1183.1 459.136 1186.54 458.51C1189.14 458.037 1189.79 456.734 1192.11 455.702C1199.39 452.465 1202.38 437.402 1197.67 431.352C1195.52 428.586 1193.54 426.037 1190.73 423.541C1187.71 420.862 1184.14 420.715 1180.62 419.151C1177.28 417.668 1171.66 418.028 1167.96 418.028C1163.6 418.028 1159.25 418.028 1154.89 418.028" stroke="black" style="stroke:black;stroke-opacity:1;" stroke-width="5" stroke-linecap="round"/>
</svg>
