<svg width="3483" height="481" viewBox="0 0 3483 481" fill="none" xmlns="http://www.w3.org/2000/svg">
<path d="M1 1.5C1 1.5 27.5494 22.5426 47.5 30C66 36.9152 108.905 24.0406 147.5 30C170 33.4742 234.032 76.984 294.5 92C354.807 106.976 391.322 98.4454 453 106C564.761 119.689 623.95 155.283 736.5 158.5C849.437 161.728 910.613 117.33 1023.5 122C1144.9 127.022 1205.75 182.649 1327 190.5C1474.53 200.052 1555.14 154.288 1702.5 142.5C1769.18 137.166 1807.29 142.036 1873.5 132.5C1941.99 122.635 2026 92 2046 92C2089.5 92 2110.48 107.237 2153.98 107.237C2173.5 107.237 2235.57 92.4853 2291.68 92.4853C2331.5 92.4853 2432.19 120.342 2518.5 122C2593.92 123.449 2670 106 2711 106C2794.05 106 2839.11 137.603 2922 132.5C2977.73 129.069 3051.5 106 3062.5 106C3135.79 106 3216.5 125.031 3249.5 122C3344.87 113.24 3482 44 3482 44" stroke="black" style="stroke:black;stroke-opacity:1;" stroke-width="3"/>
<path d="M848 308.502C826.062 312.346 802.5 273.002 796.5 284.002C792.714 290.942 823.317 306.669 821.5 325.502C819.577 345.43 781.41 348.502 785.5 362.002C787.772 369.5 821.384 348.577 842.5 356.002C862.953 363.194 874 399.5 882.5 394.502C891 389.503 866.28 363.46 876.5 348.502C889.167 329.96 934 358 934 348.502C934 334.5 900.161 341.501 888.5 325.502C875.504 307.671 894.102 275.502 887 273.002C878 269.833 868.286 304.947 848 308.502Z" stroke="black" style="stroke:black;stroke-opacity:1;" stroke-width="3"/>
<path d="M1143 384C1159 361 1177.81 364.642 1198.5 372.5C1217.15 379.583 1235.35 391.923 1231.5 411.5C1226.99 434.464 1200.5 425.5 1175 420C1155.76 415.85 1131.76 400.158 1143 384Z" stroke="black" style="stroke:black;stroke-opacity:1;" stroke-width="3"/>
<path d="M369.175 373.315C373.645 345.656 381.945 344.371 404 342.5C423.88 340.814 455.853 340.493 460.859 359.806C466.731 382.46 438.969 385.843 413.602 391.92C394.461 396.506 366.035 392.746 369.175 373.315Z" stroke="black" style="stroke:black;stroke-opacity:1;" stroke-width="3"/>
<path d="M2590.92 333.379C2604.12 303.727 2627.49 302.467 2654.2 305.299C2678.27 307.852 2703.13 316.289 2703.56 338.801C2704.06 365.207 2670.15 362.782 2638.32 363.874C2614.3 364.697 2581.65 354.209 2590.92 333.379Z" stroke="black" style="stroke:black;stroke-opacity:1;" stroke-width="3"/>
<path d="M2931 447.499C2931 433.5 2934.16 418.79 2960 411.499C2983.29 404.928 3009.74 393.257 3018.5 413.999C3028.77 438.331 3005.65 440.661 2976.5 453.5C2968.5 457.024 2931 470.301 2931 447.499Z" stroke="black" style="stroke:black;stroke-opacity:1;" stroke-width="3"/>
<path d="M1639.24 404.577C1639.52 376.561 1657.97 374.65 1679.5 369.5C1698.9 364.858 1724.23 357.886 1727.87 377.503C1730 389 1712.08 413.5 1686 413.5C1668.05 413.5 1639.04 424.259 1639.24 404.577Z" stroke="black" style="stroke:black;stroke-opacity:1;" stroke-width="3"/>
<path d="M2442.5 406C2444.5 396.001 2457.5 390.5 2481 394C2500.73 396.939 2516.33 404.918 2510.5 423.999C2507.08 435.183 2499.14 442.04 2476 429.999C2460.08 421.714 2438.65 425.301 2442.5 406Z" stroke="black" style="stroke:black;stroke-opacity:1;" stroke-width="3"/>
</svg>
