<svg width="1440" height="245" viewBox="0 0 1440 245" fill="none" xmlns="http://www.w3.org/2000/svg">
<path d="M0 205.411C0 205.411 86.6612 140.844 151.237 141.496C219.141 142.181 239.497 208.07 306.967 215.428C395.125 225.042 431.911 144.176 520.596 141.496C632.933 138.101 676.24 242.387 788.631 241.662C895.058 240.975 937.566 136.152 1043.19 148.651C1123.58 158.164 1146.27 230.107 1226.37 241.662C1310.67 253.822 1440 198.734 1440 198.734" stroke="black" style="stroke:black;stroke-opacity:1;" stroke-width="2"/>
<path d="M-0.5 109.543C-0.5 109.543 116.247 21.0004 201.728 25.8022C277.12 30.0372 300.091 111.956 375.565 109.543C456.329 106.961 471.071 10.4004 551.394 1.6651C662.125 -10.3772 686.565 145.118 797.952 143.532C906.661 141.984 927.868 4.77738 1036.54 1.6651C1150.76 -1.60603 1147.62 173.58 1291.57 143.532C1435.52 113.484 1440.5 81.9578 1440.5 81.9578" stroke="black" style="stroke:black;stroke-opacity:1;" stroke-width="2"/>
<path d="M0 142.988C0 142.988 77.8572 81 126.941 81C176.024 81 198.936 129.283 251.373 142.988C350.246 168.83 408.252 101.478 510.272 105.897C628.217 111.005 684.859 188.625 802.787 183.128C909.066 178.173 955.926 85.5489 1061.69 97.2591C1141.45 106.091 1169.02 174.841 1248.84 183.128C1324.68 191.001 1440 142.988 1440 142.988" stroke="black" style="stroke:black;stroke-opacity:1;" stroke-width="2"/>
<path d="M0 169.601C0 169.601 115.12 90.1276 198.482 85.9908C264.946 82.6926 298.366 126.177 364.887 124.621C441.888 122.82 476.325 63.4218 553.345 63.2362C655.384 62.9903 692.631 162.216 794.431 169.601C929.404 179.392 985.215 5.46605 1117.22 36.7773C1199.74 56.3533 1214.36 154.335 1298.66 161.663C1355.34 166.591 1440 124.621 1440 124.621" stroke="black" style="stroke:black;stroke-opacity:1;" stroke-width="2"/>
</svg>
